<svg xmlns="http://www.w3.org/2000/svg" width="2013.347" height="1442.411" viewBox="0 0 2013.347 1442.411">
    <g id="Group_347"  transform="translate(48.769 -6497.547) rotate(-22)" opacity="0.04">
        <g id="Group_209"  transform="translate(-2738 7009.891)">
            <path id="Path_457"  d="M1843.922,1109.136,1618.273,985.951l-112.824-61.586c-9.413-5.106-18.823-10.237-28.26-15.268a214.315,214.315,0,0,0-29.208-12.838,153.122,153.122,0,0,0-31-7.039,131.691,131.691,0,0,0-31.727.058,148.452,148.452,0,0,0-30.851,7.5l-3.729,1.393-1.865.7c-.625.222-1.241.468-1.843.75l-7.284,3.226c-4.809,2.291-9.467,4.842-14.29,7.2l-57.5,28.712-115.01,57.4-230.022,114.8L692.683,1225.471,577.6,1282.726l-57.547,28.621q-3.6,1.769-7.2,3.613l-3.6,1.826c-1.2.615-2.4,1.228-3.646,1.744l-7.421,3.252c-2.509,1-5.063,1.89-7.593,2.838a151.061,151.061,0,0,1-31.52,7.421l-8.084.732-8.115.181a138.316,138.316,0,0,1-16.181-1.062,157.545,157.545,0,0,1-31.5-7.369,213.484,213.484,0,0,1-29.481-13.183l-28.148-15.51-112.583-62.048L0,1109.357,225.826,1232.2l112.818,61.587,28.2,15.4a211.157,211.157,0,0,0,29.177,12.914,154.939,154.939,0,0,0,30.985,7.122,135.721,135.721,0,0,0,15.863.98l7.948-.208,7.915-.75a148.132,148.132,0,0,0,30.872-7.4c2.48-.943,4.984-1.825,7.445-2.815l7.283-3.226c1.226-.51,2.409-1.123,3.592-1.736l3.557-1.822q3.547-1.827,7.147-3.62l57.5-28.708,115.01-57.4,230.022-114.8L1151.34,993.2l115.087-57.255,57.55-28.617c4.811-2.325,9.568-4.9,14.437-7.2l7.42-3.251c.613-.284,1.241-.533,1.879-.756l1.9-.7,3.8-1.4a151.33,151.33,0,0,1,31.495-7.523,134.425,134.425,0,0,1,32.379.065,155.723,155.723,0,0,1,31.519,7.283,216.918,216.918,0,0,1,29.519,13.109c9.448,5.083,18.827,10.246,28.226,15.391l112.58,62.043,112.428,62.313Z" transform="translate(0 -885.548)" fill="#fff"/>
        </g>
        <path id="Path_458"  d="M1843.922,1084.336,1618.273,961.151l-112.824-61.586c-9.413-5.106-18.823-10.237-28.26-15.268a214.315,214.315,0,0,0-29.208-12.838,153.122,153.122,0,0,0-31-7.039,131.691,131.691,0,0,0-31.727.058,148.456,148.456,0,0,0-30.851,7.5l-3.729,1.393-1.865.7c-.625.222-1.241.468-1.843.75l-7.284,3.226c-4.809,2.291-9.467,4.842-14.29,7.2l-57.5,28.712-115.01,57.4-230.022,114.8L692.683,1200.672,577.6,1257.926l-57.547,28.622q-3.6,1.77-7.2,3.613l-3.6,1.826c-1.2.615-2.4,1.228-3.646,1.744l-7.421,3.252c-2.509,1-5.063,1.89-7.593,2.838a150.991,150.991,0,0,1-31.52,7.421l-8.084.733-8.115.181a138.29,138.29,0,0,1-16.181-1.062,157.469,157.469,0,0,1-31.5-7.369,213.484,213.484,0,0,1-29.481-13.183l-28.148-15.51-112.583-62.048L0,1084.557,225.826,1207.4l112.818,61.586,28.2,15.4a211.025,211.025,0,0,0,29.177,12.914,154.922,154.922,0,0,0,30.985,7.122,135.7,135.7,0,0,0,15.863.98l7.948-.208,7.915-.75a148.176,148.176,0,0,0,30.872-7.4c2.48-.943,4.984-1.825,7.445-2.817l7.283-3.226c1.226-.51,2.409-1.122,3.592-1.736l3.557-1.822q3.547-1.826,7.147-3.62l57.5-28.708,115.01-57.4,230.022-114.8L1151.34,968.4l115.087-57.255,57.55-28.617c4.811-2.325,9.568-4.9,14.437-7.2l7.42-3.251c.613-.284,1.241-.533,1.879-.756l1.9-.7,3.8-1.4a151.276,151.276,0,0,1,31.495-7.523,134.469,134.469,0,0,1,32.379.064,155.783,155.783,0,0,1,31.519,7.284,216.9,216.9,0,0,1,29.519,13.109c9.448,5.083,18.827,10.245,28.226,15.391l112.58,62.043,112.428,62.313Z" transform="translate(-2738 6126.437)" fill="#fff"/>
        <path id="Path_459"  d="M1843.922,1059.536,1618.273,936.351l-112.824-61.586c-9.413-5.106-18.823-10.237-28.26-15.268a214.315,214.315,0,0,0-29.208-12.838,153.118,153.118,0,0,0-31-7.039,131.691,131.691,0,0,0-31.727.058,148.452,148.452,0,0,0-30.851,7.5l-3.729,1.393-1.865.7c-.625.222-1.241.468-1.843.75l-7.284,3.226c-4.809,2.291-9.467,4.842-14.29,7.2l-57.5,28.712-115.01,57.4-230.022,114.8L692.683,1175.871,577.6,1233.126l-57.547,28.621q-3.6,1.769-7.2,3.613l-3.6,1.826c-1.2.615-2.4,1.229-3.646,1.744l-7.421,3.252c-2.509,1-5.063,1.89-7.593,2.838a151.007,151.007,0,0,1-31.52,7.421l-8.084.732-8.115.181a138.29,138.29,0,0,1-16.181-1.062,157.554,157.554,0,0,1-31.5-7.369,213.484,213.484,0,0,1-29.481-13.183l-28.148-15.51-112.583-62.048L0,1059.757,225.826,1182.6l112.818,61.586,28.2,15.4a211.045,211.045,0,0,0,29.177,12.915,154.93,154.93,0,0,0,30.985,7.122,135.721,135.721,0,0,0,15.863.98l7.948-.208,7.915-.75a148.14,148.14,0,0,0,30.872-7.4c2.48-.942,4.984-1.825,7.445-2.815l7.283-3.226c1.226-.51,2.409-1.123,3.592-1.736l3.557-1.822q3.547-1.827,7.147-3.62l57.5-28.708,115.01-57.4,230.022-114.8L1151.34,943.6l115.087-57.255,57.55-28.617c4.811-2.325,9.568-4.9,14.437-7.2l7.42-3.251c.613-.284,1.241-.533,1.879-.756l1.9-.7,3.8-1.4a151.334,151.334,0,0,1,31.495-7.523,134.425,134.425,0,0,1,32.379.065,155.723,155.723,0,0,1,31.519,7.283,216.918,216.918,0,0,1,29.519,13.109c9.448,5.083,18.827,10.245,28.226,15.391l112.58,62.043L1731.561,997.1Z" transform="translate(-2738 6128.531)" fill="#fff"/>
        <path id="Path_460"  d="M1843.922,1034.736,1618.273,911.551l-112.824-61.586c-9.413-5.106-18.823-10.237-28.26-15.268a214.323,214.323,0,0,0-29.208-12.838,153.178,153.178,0,0,0-31-7.04,131.738,131.738,0,0,0-31.727.059,148.452,148.452,0,0,0-30.851,7.5l-3.729,1.393-1.865.7c-.625.222-1.241.468-1.843.75l-7.284,3.226c-4.809,2.291-9.467,4.842-14.29,7.2l-57.5,28.712-115.01,57.4-230.022,114.8L692.683,1151.072,577.6,1208.327l-57.547,28.621q-3.6,1.769-7.2,3.613l-3.6,1.826c-1.2.615-2.4,1.228-3.646,1.744l-7.421,3.252c-2.509,1-5.063,1.889-7.593,2.838a151,151,0,0,1-31.52,7.421l-8.084.733-8.115.181a138.29,138.29,0,0,1-16.181-1.062,157.536,157.536,0,0,1-31.5-7.369,213.5,213.5,0,0,1-29.481-13.183l-28.148-15.51-112.583-62.048L0,1034.957,225.826,1157.8l112.818,61.586,28.2,15.4a211.025,211.025,0,0,0,29.177,12.914,154.922,154.922,0,0,0,30.985,7.122,135.535,135.535,0,0,0,15.863.98l7.948-.208,7.915-.75a148.176,148.176,0,0,0,30.872-7.4c2.48-.943,4.984-1.826,7.445-2.817l7.283-3.226c1.226-.51,2.409-1.122,3.592-1.736l3.557-1.822q3.547-1.826,7.147-3.62l57.5-28.708,115.01-57.4,230.022-114.8L1151.34,918.8l115.087-57.255,57.55-28.617c4.811-2.325,9.568-4.9,14.437-7.2l7.42-3.251c.613-.284,1.241-.533,1.879-.756l1.9-.7,3.8-1.4a151.276,151.276,0,0,1,31.495-7.523,134.422,134.422,0,0,1,32.379.065,155.723,155.723,0,0,1,31.519,7.283,216.918,216.918,0,0,1,29.519,13.109c9.448,5.083,18.827,10.246,28.226,15.391l112.58,62.043L1731.561,972.3Z" transform="translate(-2738 6130.625)" fill="#fff"/>
        <path id="Path_461"  d="M1843.922,1009.936,1618.273,886.751l-112.824-61.586c-9.413-5.106-18.823-10.237-28.26-15.268a214.323,214.323,0,0,0-29.208-12.838,153.114,153.114,0,0,0-31-7.039,131.694,131.694,0,0,0-31.727.058,148.456,148.456,0,0,0-30.851,7.5l-3.729,1.393-1.865.7c-.625.222-1.241.468-1.843.75l-7.284,3.226c-4.809,2.291-9.467,4.842-14.29,7.2l-57.5,28.712-115.01,57.4-230.022,114.8L692.683,1126.271,577.6,1183.526l-57.547,28.621q-3.6,1.769-7.2,3.613l-3.6,1.826c-1.2.615-2.4,1.228-3.646,1.744l-7.421,3.252c-2.509,1-5.063,1.89-7.593,2.838a151,151,0,0,1-31.52,7.421l-8.084.732-8.115.181a138.316,138.316,0,0,1-16.181-1.062,157.486,157.486,0,0,1-31.5-7.369,213.47,213.47,0,0,1-29.481-13.183l-28.148-15.51-112.583-62.048L0,1010.157,225.826,1133l112.818,61.585,28.2,15.4a211.157,211.157,0,0,0,29.177,12.914,154.939,154.939,0,0,0,30.985,7.122,135.748,135.748,0,0,0,15.863.98l7.948-.208,7.915-.75a148.132,148.132,0,0,0,30.872-7.4c2.48-.942,4.984-1.825,7.445-2.815l7.283-3.226c1.226-.51,2.409-1.122,3.592-1.736l3.557-1.822q3.547-1.826,7.147-3.62l57.5-28.708,115.01-57.4,230.022-114.8L1151.34,894l115.087-57.255,57.55-28.617c4.811-2.325,9.568-4.9,14.437-7.2l7.42-3.251c.613-.284,1.241-.533,1.879-.756l1.9-.7,3.8-1.4a151.33,151.33,0,0,1,31.495-7.523,134.466,134.466,0,0,1,32.379.064,155.779,155.779,0,0,1,31.519,7.284,216.91,216.91,0,0,1,29.519,13.109c9.448,5.083,18.827,10.245,28.226,15.391l112.58,62.043L1731.561,947.5Z" transform="translate(-2738 6132.72)" fill="#fff"/>
        <path id="Path_462"  d="M1843.922,985.136,1618.273,861.951l-112.824-61.586c-9.413-5.106-18.823-10.237-28.26-15.268a214.315,214.315,0,0,0-29.208-12.838,153.118,153.118,0,0,0-31-7.039,131.691,131.691,0,0,0-31.727.058,148.452,148.452,0,0,0-30.851,7.5l-3.729,1.393-1.865.7c-.625.222-1.241.468-1.843.75l-7.284,3.226c-4.809,2.291-9.467,4.842-14.29,7.2l-57.5,28.712-115.01,57.4-230.022,114.8L692.683,1101.471,577.6,1158.726l-57.547,28.621q-3.6,1.769-7.2,3.613l-3.6,1.826c-1.2.615-2.4,1.228-3.646,1.744l-7.421,3.252c-2.509,1-5.063,1.89-7.593,2.838a151.053,151.053,0,0,1-31.52,7.421l-8.084.733-8.115.181a138.29,138.29,0,0,1-16.181-1.062,157.537,157.537,0,0,1-31.5-7.369,213.484,213.484,0,0,1-29.481-13.183l-28.148-15.51-112.583-62.048L0,985.357,225.826,1108.2l112.818,61.587,28.2,15.4a211.143,211.143,0,0,0,29.177,12.914,154.947,154.947,0,0,0,30.985,7.122,135.721,135.721,0,0,0,15.863.98l7.948-.208,7.915-.75a148.14,148.14,0,0,0,30.872-7.4c2.48-.943,4.984-1.825,7.445-2.815l7.283-3.226c1.226-.51,2.409-1.122,3.592-1.736l3.557-1.822q3.547-1.827,7.147-3.62l57.5-28.708,115.01-57.4,230.022-114.8L1151.34,869.2l115.087-57.255,57.55-28.617c4.811-2.325,9.568-4.9,14.437-7.2l7.42-3.251c.613-.284,1.241-.533,1.879-.756l1.9-.7,3.8-1.4a151.326,151.326,0,0,1,31.495-7.523,134.422,134.422,0,0,1,32.379.065,155.719,155.719,0,0,1,31.519,7.283,216.91,216.91,0,0,1,29.519,13.109c9.448,5.083,18.827,10.246,28.226,15.391l112.58,62.043L1731.561,922.7Z" transform="translate(-2738 6134.814)" fill="#fff"/>
        <path id="Path_463"  d="M1843.922,960.336,1618.273,837.151l-112.824-61.586c-9.413-5.106-18.823-10.237-28.26-15.268a214.315,214.315,0,0,0-29.208-12.838,153.118,153.118,0,0,0-31-7.039,131.688,131.688,0,0,0-31.727.058,148.456,148.456,0,0,0-30.851,7.5l-3.729,1.393-1.865.7c-.625.222-1.241.468-1.843.75l-7.284,3.226c-4.809,2.291-9.467,4.842-14.29,7.2l-57.5,28.712-115.01,57.4-230.022,114.8L692.683,1076.672,577.6,1133.926l-57.547,28.622q-3.6,1.77-7.2,3.613l-3.6,1.826c-1.2.615-2.4,1.228-3.646,1.744l-7.421,3.252c-2.509,1-5.063,1.89-7.593,2.838a151,151,0,0,1-31.52,7.421l-8.084.732-8.115.181a138.29,138.29,0,0,1-16.181-1.062,157.469,157.469,0,0,1-31.5-7.369,213.47,213.47,0,0,1-29.481-13.183l-28.148-15.51-112.583-62.048L0,960.557,225.826,1083.4l112.818,61.586,28.2,15.4a211.025,211.025,0,0,0,29.177,12.914,154.922,154.922,0,0,0,30.985,7.122,135.721,135.721,0,0,0,15.863.979l7.948-.208,7.915-.75a148.184,148.184,0,0,0,30.872-7.4c2.48-.943,4.984-1.826,7.445-2.817l7.283-3.226c1.226-.51,2.409-1.122,3.592-1.736l3.557-1.822q3.547-1.826,7.147-3.62l57.5-28.708,115.01-57.4,230.022-114.8L1151.34,844.4l115.087-57.255,57.55-28.617c4.811-2.325,9.568-4.9,14.437-7.2l7.42-3.251c.613-.284,1.241-.533,1.879-.756l1.9-.7,3.8-1.4a151.269,151.269,0,0,1,31.495-7.523,134.463,134.463,0,0,1,32.379.064,155.779,155.779,0,0,1,31.519,7.284,216.9,216.9,0,0,1,29.519,13.109c9.448,5.083,18.827,10.245,28.226,15.391l112.58,62.043L1731.561,897.9Z" transform="translate(-2738 6136.909)" fill="#fff"/>
        <path id="Path_464"  d="M1843.922,935.536,1618.273,812.351l-112.824-61.586c-9.413-5.106-18.823-10.237-28.26-15.268a214.315,214.315,0,0,0-29.208-12.838,153.118,153.118,0,0,0-31-7.039,131.688,131.688,0,0,0-31.727.058,148.448,148.448,0,0,0-30.851,7.5l-3.729,1.393-1.865.7c-.625.222-1.241.468-1.843.75l-7.284,3.226c-4.809,2.291-9.467,4.842-14.29,7.2l-57.5,28.712-115.01,57.4-230.022,114.8L692.683,1051.871,577.6,1109.126l-57.547,28.621q-3.6,1.769-7.2,3.613l-3.6,1.826c-1.2.615-2.4,1.229-3.646,1.744l-7.421,3.252c-2.509,1-5.063,1.89-7.593,2.838a150.991,150.991,0,0,1-31.52,7.421l-8.084.732-8.115.181a138.263,138.263,0,0,1-16.181-1.062,157.545,157.545,0,0,1-31.5-7.369,213.484,213.484,0,0,1-29.481-13.183l-28.148-15.51-112.583-62.048L0,935.757,225.826,1058.6l112.818,61.586,28.2,15.4a211.045,211.045,0,0,0,29.177,12.915,154.93,154.93,0,0,0,30.985,7.122,135.721,135.721,0,0,0,15.863.98l7.948-.208,7.915-.75a148.132,148.132,0,0,0,30.872-7.4c2.48-.942,4.984-1.825,7.445-2.815l7.283-3.226c1.226-.51,2.409-1.122,3.592-1.736l3.557-1.822q3.547-1.827,7.147-3.62l57.5-28.708,115.01-57.4,230.022-114.8L1151.34,819.6l115.087-57.255,57.55-28.617c4.811-2.325,9.568-4.9,14.437-7.2l7.42-3.251c.613-.284,1.241-.533,1.879-.756l1.9-.7,3.8-1.4a151.33,151.33,0,0,1,31.495-7.523,134.422,134.422,0,0,1,32.379.065,155.719,155.719,0,0,1,31.519,7.283,216.911,216.911,0,0,1,29.519,13.109c9.448,5.083,18.827,10.245,28.226,15.391l112.58,62.043L1731.561,873.1Z" transform="translate(-2738 6139.003)" fill="#fff"/>
        <path id="Path_465"  d="M1843.922,910.736,1618.273,787.551l-112.824-61.586c-9.413-5.106-18.823-10.237-28.26-15.268a214.315,214.315,0,0,0-29.208-12.838,153.182,153.182,0,0,0-31-7.04,131.738,131.738,0,0,0-31.727.059,148.448,148.448,0,0,0-30.851,7.5l-3.729,1.393-1.865.7c-.625.222-1.241.468-1.843.75l-7.284,3.226c-4.809,2.291-9.467,4.842-14.29,7.2l-57.5,28.712-115.01,57.4-230.022,114.8L692.683,1027.072,577.6,1084.327l-57.547,28.621q-3.6,1.769-7.2,3.613l-3.6,1.826c-1.2.615-2.4,1.228-3.646,1.744l-7.421,3.252c-2.509,1-5.063,1.889-7.593,2.838a151,151,0,0,1-31.52,7.421l-8.084.733-8.115.181a138.316,138.316,0,0,1-16.181-1.062,157.537,157.537,0,0,1-31.5-7.369,213.484,213.484,0,0,1-29.481-13.183l-28.148-15.51-112.583-62.048L0,910.957,225.826,1033.8l112.818,61.586,28.2,15.4a211.04,211.04,0,0,0,29.177,12.914,154.922,154.922,0,0,0,30.985,7.122,135.562,135.562,0,0,0,15.863.98l7.948-.208,7.915-.75a148.176,148.176,0,0,0,30.872-7.4c2.48-.943,4.984-1.826,7.445-2.817l7.283-3.226c1.226-.51,2.409-1.122,3.592-1.736l3.557-1.822q3.547-1.826,7.147-3.62l57.5-28.708,115.01-57.4,230.022-114.8L1151.34,794.8l115.087-57.255,57.55-28.617c4.811-2.325,9.568-4.9,14.437-7.2l7.42-3.251c.613-.284,1.241-.533,1.879-.756l1.9-.7,3.8-1.4a151.269,151.269,0,0,1,31.495-7.523,134.419,134.419,0,0,1,32.379.065,155.719,155.719,0,0,1,31.519,7.283,216.926,216.926,0,0,1,29.519,13.109c9.448,5.083,18.827,10.246,28.226,15.391l112.58,62.043L1731.561,848.3Z" transform="translate(-2738 6141.097)" fill="#fff"/>
        <path id="Path_466"  d="M1843.922,885.936,1618.273,762.751l-112.824-61.586c-9.413-5.106-18.823-10.237-28.26-15.268a214.323,214.323,0,0,0-29.208-12.838,153.122,153.122,0,0,0-31-7.039,131.691,131.691,0,0,0-31.727.058,148.452,148.452,0,0,0-30.851,7.5l-3.729,1.393-1.865.7c-.625.222-1.241.468-1.843.75l-7.284,3.226c-4.809,2.291-9.467,4.842-14.29,7.2l-57.5,28.712-115.01,57.4-230.022,114.8L692.683,1002.271,577.6,1059.526l-57.547,28.621q-3.6,1.769-7.2,3.613l-3.6,1.826c-1.2.615-2.4,1.228-3.646,1.744l-7.421,3.252c-2.509,1-5.063,1.89-7.593,2.838a151,151,0,0,1-31.52,7.421l-8.084.732-8.115.181a138.316,138.316,0,0,1-16.181-1.062,157.5,157.5,0,0,1-31.5-7.369,213.47,213.47,0,0,1-29.481-13.183l-28.148-15.51-112.583-62.048L0,886.157,225.826,1009l112.818,61.586,28.2,15.4a211.171,211.171,0,0,0,29.177,12.914,154.93,154.93,0,0,0,30.985,7.122,135.721,135.721,0,0,0,15.863.98l7.948-.208,7.915-.75a148.125,148.125,0,0,0,30.872-7.4c2.48-.942,4.984-1.825,7.445-2.815l7.283-3.226c1.226-.51,2.409-1.122,3.592-1.736l3.557-1.822q3.547-1.826,7.147-3.62l57.5-28.708,115.01-57.4,230.022-114.8L1151.34,770l115.087-57.255,57.55-28.617c4.811-2.325,9.568-4.9,14.437-7.2l7.42-3.251c.613-.284,1.241-.533,1.879-.756l1.9-.7,3.8-1.4a151.334,151.334,0,0,1,31.495-7.523,134.469,134.469,0,0,1,32.379.064,155.779,155.779,0,0,1,31.519,7.284,216.918,216.918,0,0,1,29.519,13.109c9.448,5.083,18.827,10.245,28.226,15.391l112.58,62.043L1731.561,823.5Z" transform="translate(-2738 6143.191)" fill="#fff"/>
        <path id="Path_467"  d="M1843.922,861.136,1618.273,737.951l-112.824-61.586c-9.413-5.106-18.823-10.237-28.26-15.268a214.315,214.315,0,0,0-29.208-12.838,153.122,153.122,0,0,0-31-7.039,131.694,131.694,0,0,0-31.727.058,148.452,148.452,0,0,0-30.851,7.5l-3.729,1.393-1.865.7c-.625.222-1.241.468-1.843.75l-7.284,3.226c-4.809,2.291-9.467,4.842-14.29,7.2l-57.5,28.712-115.01,57.4-230.022,114.8L692.683,977.471,577.6,1034.726l-57.547,28.621q-3.6,1.769-7.2,3.613l-3.6,1.826c-1.2.615-2.4,1.228-3.646,1.744l-7.421,3.252c-2.509,1-5.063,1.89-7.593,2.838a151.061,151.061,0,0,1-31.52,7.421l-8.084.733-8.115.181a138.316,138.316,0,0,1-16.181-1.062,157.528,157.528,0,0,1-31.5-7.369,213.484,213.484,0,0,1-29.481-13.183l-28.148-15.51L224.977,985.782,0,861.357,225.826,984.2l112.818,61.586,28.2,15.4a211.142,211.142,0,0,0,29.177,12.914,154.939,154.939,0,0,0,30.985,7.122,135.721,135.721,0,0,0,15.863.98l7.948-.208,7.915-.75a148.132,148.132,0,0,0,30.872-7.4c2.48-.943,4.984-1.825,7.445-2.815l7.283-3.226c1.226-.51,2.409-1.123,3.592-1.736l3.557-1.822q3.547-1.827,7.147-3.62l57.5-28.708,115.01-57.4,230.022-114.8L1151.34,745.2l115.087-57.255,57.55-28.617c4.811-2.325,9.568-4.9,14.437-7.2l7.42-3.251c.613-.284,1.241-.533,1.879-.756l1.9-.7,3.8-1.4a151.33,151.33,0,0,1,31.495-7.523,134.425,134.425,0,0,1,32.379.065,155.723,155.723,0,0,1,31.519,7.283,216.918,216.918,0,0,1,29.519,13.109c9.448,5.083,18.827,10.246,28.226,15.391l112.58,62.043L1731.561,798.7Z" transform="translate(-2738 6145.286)" fill="#fff"/>
        <path id="Path_468"  d="M1843.922,836.336,1618.273,713.151l-112.824-61.586c-9.413-5.106-18.823-10.237-28.26-15.268a214.315,214.315,0,0,0-29.208-12.838,153.122,153.122,0,0,0-31-7.039,131.691,131.691,0,0,0-31.727.058,148.456,148.456,0,0,0-30.851,7.5l-3.729,1.393-1.865.7c-.625.222-1.241.468-1.843.75l-7.284,3.226c-4.809,2.291-9.467,4.842-14.29,7.2l-57.5,28.712-115.01,57.4-230.022,114.8L692.683,952.672,577.6,1009.926l-57.547,28.622q-3.6,1.77-7.2,3.613l-3.6,1.826c-1.2.615-2.4,1.228-3.646,1.744l-7.421,3.252c-2.509,1-5.063,1.89-7.593,2.838a151,151,0,0,1-31.52,7.421l-8.084.732-8.115.181a138.29,138.29,0,0,1-16.181-1.062,157.469,157.469,0,0,1-31.5-7.369,213.47,213.47,0,0,1-29.481-13.183l-28.148-15.51L224.977,960.982,0,836.557,225.826,959.4l112.818,61.586,28.2,15.4a211.025,211.025,0,0,0,29.177,12.914,154.922,154.922,0,0,0,30.985,7.122,135.721,135.721,0,0,0,15.863.979l7.948-.208,7.915-.75a148.184,148.184,0,0,0,30.872-7.4c2.48-.943,4.984-1.826,7.445-2.817l7.283-3.226c1.226-.51,2.409-1.122,3.592-1.736l3.557-1.822q3.547-1.826,7.147-3.62l57.5-28.708,115.01-57.4,230.022-114.8L1151.34,720.4l115.087-57.255,57.55-28.617c4.811-2.325,9.568-4.9,14.437-7.2l7.42-3.251c.613-.284,1.241-.533,1.879-.756l1.9-.7,3.8-1.4a151.276,151.276,0,0,1,31.495-7.523,134.469,134.469,0,0,1,32.379.064,155.783,155.783,0,0,1,31.519,7.284,216.9,216.9,0,0,1,29.519,13.109c9.448,5.083,18.827,10.245,28.226,15.391l112.58,62.043L1731.561,773.9Z" transform="translate(-2738 6147.38)" fill="#fff"/>
        <path id="Path_469"  d="M1843.922,811.536,1618.273,688.351l-112.824-61.586c-9.413-5.106-18.823-10.237-28.26-15.268a214.315,214.315,0,0,0-29.208-12.838,153.118,153.118,0,0,0-31-7.039,131.691,131.691,0,0,0-31.727.058,148.452,148.452,0,0,0-30.851,7.5l-3.729,1.393-1.865.7c-.625.222-1.241.468-1.843.75l-7.284,3.226c-4.809,2.291-9.467,4.842-14.29,7.2l-57.5,28.712-115.01,57.4-230.022,114.8L692.683,927.871,577.6,985.126l-57.547,28.621q-3.6,1.769-7.2,3.613l-3.6,1.826c-1.2.615-2.4,1.229-3.646,1.744l-7.421,3.252c-2.509,1-5.063,1.89-7.593,2.838a151,151,0,0,1-31.52,7.421l-8.084.732-8.115.181a138.316,138.316,0,0,1-16.181-1.062,157.545,157.545,0,0,1-31.5-7.369,213.477,213.477,0,0,1-29.481-13.183L337.56,998.23,224.977,936.182,0,811.757,225.826,934.6l112.818,61.586,28.2,15.4a211.045,211.045,0,0,0,29.177,12.915,154.931,154.931,0,0,0,30.985,7.122,135.748,135.748,0,0,0,15.863.98l7.948-.208,7.915-.75a148.14,148.14,0,0,0,30.872-7.4c2.48-.942,4.984-1.825,7.445-2.815l7.283-3.226c1.226-.51,2.409-1.122,3.592-1.736l3.557-1.822q3.547-1.827,7.147-3.62l57.5-28.708,115.01-57.4,230.022-114.8L1151.34,695.6l115.087-57.255,57.55-28.617c4.811-2.325,9.568-4.9,14.437-7.2l7.42-3.251c.613-.284,1.241-.533,1.879-.756l1.9-.7,3.8-1.4a151.334,151.334,0,0,1,31.495-7.523,134.425,134.425,0,0,1,32.379.065,155.723,155.723,0,0,1,31.519,7.283,216.918,216.918,0,0,1,29.519,13.109c9.448,5.083,18.827,10.245,28.226,15.391l112.58,62.043L1731.561,749.1Z" transform="translate(-2738 6149.475)" fill="#fff"/>
        <path id="Path_470"  d="M1843.922,786.736,1618.273,663.551l-112.824-61.586c-9.413-5.106-18.823-10.237-28.26-15.268a214.323,214.323,0,0,0-29.208-12.838,153.178,153.178,0,0,0-31-7.04,131.738,131.738,0,0,0-31.727.059,148.452,148.452,0,0,0-30.851,7.5l-3.729,1.393-1.865.7c-.625.222-1.241.468-1.843.75l-7.284,3.226c-4.809,2.291-9.467,4.842-14.29,7.2l-57.5,28.712-115.01,57.4-230.022,114.8L692.683,903.071,577.6,960.326l-57.547,28.621q-3.6,1.769-7.2,3.613l-3.6,1.826c-1.2.615-2.4,1.228-3.646,1.744l-7.421,3.252c-2.509,1-5.063,1.889-7.593,2.838a151,151,0,0,1-31.52,7.421l-8.084.732-8.115.181a138.3,138.3,0,0,1-16.181-1.062,157.541,157.541,0,0,1-31.5-7.369,213.484,213.484,0,0,1-29.481-13.183L337.56,973.43,224.977,911.382,0,786.957,225.826,909.8l112.818,61.586,28.2,15.4A211.149,211.149,0,0,0,396.025,999.7a154.922,154.922,0,0,0,30.985,7.122,135.549,135.549,0,0,0,15.863.98l7.948-.208,7.915-.75a148.18,148.18,0,0,0,30.872-7.4c2.48-.943,4.984-1.826,7.445-2.817l7.283-3.226c1.226-.51,2.409-1.122,3.592-1.736l3.557-1.822q3.547-1.826,7.147-3.62l57.5-28.708,115.01-57.4,230.022-114.8L1151.34,670.8l115.087-57.255,57.55-28.617c4.811-2.325,9.568-4.9,14.437-7.2l7.42-3.251c.613-.284,1.241-.533,1.879-.756l1.9-.7,3.8-1.4a151.272,151.272,0,0,1,31.495-7.523,134.419,134.419,0,0,1,32.379.065,155.723,155.723,0,0,1,31.519,7.283,216.918,216.918,0,0,1,29.519,13.109c9.448,5.083,18.827,10.246,28.226,15.391l112.58,62.043L1731.561,724.3Z" transform="translate(-2738 6151.569)" fill="#fff"/>
        <path id="Path_471"  d="M1843.922,761.936,1618.273,638.751l-112.824-61.586c-9.413-5.106-18.823-10.237-28.26-15.268a214.323,214.323,0,0,0-29.208-12.838,153.122,153.122,0,0,0-31-7.039,131.694,131.694,0,0,0-31.727.058,148.452,148.452,0,0,0-30.851,7.5l-3.729,1.393-1.865.7c-.625.222-1.241.468-1.843.75l-7.284,3.226c-4.809,2.291-9.467,4.842-14.29,7.2l-57.5,28.712-115.01,57.4-230.022,114.8L692.683,878.271,577.6,935.526l-57.547,28.621q-3.6,1.769-7.2,3.613l-3.6,1.826c-1.2.615-2.4,1.228-3.646,1.744l-7.421,3.252c-2.509,1-5.063,1.89-7.593,2.838a151,151,0,0,1-31.52,7.421l-8.084.732-8.115.181a138.316,138.316,0,0,1-16.181-1.062,157.486,157.486,0,0,1-31.5-7.369,213.484,213.484,0,0,1-29.481-13.183L337.56,948.63,224.977,886.582,0,762.157,225.826,885l112.818,61.586,28.2,15.4A211.142,211.142,0,0,0,396.025,974.9a154.926,154.926,0,0,0,30.985,7.122,135.735,135.735,0,0,0,15.863.98l7.948-.208,7.915-.75a148.132,148.132,0,0,0,30.872-7.4c2.48-.942,4.984-1.825,7.445-2.815l7.283-3.226c1.226-.51,2.409-1.122,3.592-1.736l3.557-1.822q3.547-1.827,7.147-3.62l57.5-28.708,115.01-57.4,230.022-114.8L1151.34,646l115.087-57.255,57.55-28.617c4.811-2.325,9.568-4.9,14.437-7.2l7.42-3.251c.613-.284,1.241-.533,1.879-.756l1.9-.7,3.8-1.4a151.334,151.334,0,0,1,31.495-7.523,134.472,134.472,0,0,1,32.379.064,155.783,155.783,0,0,1,31.519,7.284,216.9,216.9,0,0,1,29.519,13.109c9.448,5.083,18.827,10.245,28.226,15.391l112.58,62.043L1731.561,699.5Z" transform="translate(-2738 6153.663)" fill="#fff"/>
        <path id="Path_472" d="M1843.922,737.136,1618.273,613.951l-112.824-61.586c-9.413-5.106-18.823-10.237-28.26-15.268a214.315,214.315,0,0,0-29.208-12.838,153.122,153.122,0,0,0-31-7.039,131.694,131.694,0,0,0-31.727.058,148.456,148.456,0,0,0-30.851,7.5l-3.729,1.393-1.865.7c-.625.222-1.241.468-1.843.75l-7.284,3.226c-4.809,2.291-9.467,4.842-14.29,7.2l-57.5,28.712-115.01,57.4-230.022,114.8L692.683,853.472,577.6,910.727l-57.547,28.621q-3.6,1.77-7.2,3.613l-3.6,1.826c-1.2.615-2.4,1.228-3.646,1.744l-7.421,3.252c-2.509,1-5.063,1.89-7.593,2.838a151,151,0,0,1-31.52,7.421l-8.084.732-8.115.181a138.3,138.3,0,0,1-16.181-1.062,157.541,157.541,0,0,1-31.5-7.369,213.484,213.484,0,0,1-29.481-13.183L337.56,923.83,224.977,861.782,0,737.357,225.826,860.2l112.818,61.586,28.2,15.4A211.149,211.149,0,0,0,396.025,950.1a154.926,154.926,0,0,0,30.985,7.122,135.721,135.721,0,0,0,15.863.98l7.948-.208,7.915-.75a148.132,148.132,0,0,0,30.872-7.4c2.48-.943,4.984-1.825,7.445-2.815l7.283-3.226c1.226-.51,2.409-1.122,3.592-1.736l3.557-1.822q3.547-1.826,7.147-3.62l57.5-28.708,115.01-57.4,230.022-114.8L1151.34,621.2l115.087-57.255,57.55-28.617c4.811-2.325,9.568-4.9,14.437-7.2l7.42-3.251c.613-.284,1.241-.533,1.879-.756l1.9-.7,3.8-1.4a151.334,151.334,0,0,1,31.495-7.523,134.425,134.425,0,0,1,32.379.065,155.719,155.719,0,0,1,31.519,7.283,216.918,216.918,0,0,1,29.519,13.109c9.448,5.083,18.827,10.246,28.226,15.391l112.58,62.043L1731.561,674.7Z" transform="translate(-2738 6155.757)" fill="#fff"/>
        <path id="Path_473"  d="M1843.922,712.336,1618.273,589.151l-112.824-61.586c-9.413-5.106-18.823-10.237-28.26-15.268a214.319,214.319,0,0,0-29.208-12.838,153.116,153.116,0,0,0-31-7.039,131.691,131.691,0,0,0-31.727.058,148.452,148.452,0,0,0-30.851,7.5l-3.729,1.393-1.865.7c-.625.222-1.241.468-1.843.75l-7.284,3.226c-4.809,2.291-9.467,4.842-14.29,7.2l-57.5,28.712-115.01,57.4-230.022,114.8L692.683,828.672,577.6,885.926l-57.547,28.621q-3.6,1.769-7.2,3.613l-3.6,1.826c-1.2.615-2.4,1.228-3.646,1.744l-7.421,3.252c-2.509,1-5.063,1.889-7.593,2.838a151.057,151.057,0,0,1-31.52,7.421l-8.084.732-8.115.181a138.3,138.3,0,0,1-16.181-1.062,157.478,157.478,0,0,1-31.5-7.369,213.491,213.491,0,0,1-29.481-13.183L337.56,899.03,224.977,836.982,0,712.557,225.826,835.4l112.818,61.586,28.2,15.4A211.157,211.157,0,0,0,396.025,925.3a154.926,154.926,0,0,0,30.985,7.122,135.721,135.721,0,0,0,15.863.98l7.948-.208,7.915-.749a148.248,148.248,0,0,0,30.872-7.4c2.48-.944,4.984-1.826,7.445-2.817L504.336,919c1.226-.51,2.409-1.122,3.592-1.736l3.557-1.822q3.547-1.826,7.147-3.62l57.5-28.708,115.01-57.4,230.022-114.8L1151.34,596.4l115.087-57.255,57.55-28.617c4.811-2.325,9.568-4.9,14.437-7.2l7.42-3.251c.613-.284,1.241-.533,1.879-.756l1.9-.7,3.8-1.4a151.273,151.273,0,0,1,31.495-7.523,134.467,134.467,0,0,1,32.379.064,155.783,155.783,0,0,1,31.519,7.284,216.914,216.914,0,0,1,29.519,13.109c9.448,5.083,18.827,10.245,28.226,15.391l112.58,62.043L1731.561,649.9Z" transform="translate(-2738 6157.852)" fill="#fff"/>
    </g>
</svg>
