<svg xmlns="http://www.w3.org/2000/svg" viewBox="0 0 40.38 28.09"><path d="M225.84,249.43s-.62-.24-1.69-.69c-.53-.25-1.2-.44-2-.72s-1.61-.52-2.54-.81l-.72-.21-.75-.18-1.58-.38c-.54-.12-1.11-.2-1.68-.31s-1.16-.23-1.76-.29l-1.82-.24c-.62-.06-1.24-.09-1.87-.15l-.95-.07-1,0-1.92,0-1.93,0c-.32,0-.65,0-1,0l-.94.07c-.63.06-1.25.09-1.86.16l-1.83.24c-.6.05-1.18.18-1.75.28s-1.14.19-1.68.31l-1.58.39-.75.17-.72.21c-.93.29-1.8.52-2.55.81s-1.42.47-1.94.72c-1.07.45-1.69.69-1.69.69s.57-.37,1.58-1a20.37,20.37,0,0,1,1.87-1l.57-.29.29-.14.32-.14,1.33-.54.71-.29.75-.25,1.58-.51c.55-.17,1.12-.29,1.7-.45s1.17-.29,1.78-.39l1.86-.32c.64-.09,1.28-.15,1.93-.21l1-.1c.33,0,.65,0,1,0l2-.07,2,.07c.33,0,.66,0,1,0l1,.1c.65.07,1.29.12,1.92.21l1.86.32c.61.1,1.21.25,1.79.4s1.15.27,1.69.44l1.59.51.75.25.71.29,1.33.55.31.13.3.15.57.28c.73.37,1.37.68,1.87,1C225.27,249.06,225.84,249.43,225.84,249.43Z" transform="translate(-185.46 -225.16)" style="fill:#e4e9ee"/><path d="M201.82,240.6h1.76v-1.75h-1.76Zm2.92,0h1.75v-1.75h-1.75Zm20.53,3.92-7.49-7.38v-7.57L214.17,226v7.62l-7.15-7-1.41-1.38-1.4,1.38-18.25,18,19.65-13.62Zm-19.62-17.86v3l-12.38,9Zm-3.83,11.18h1.76v-1.75h-1.76Zm2.92,0h1.75v-1.75h-1.75Zm2.91,0h1.75v-1.75h-1.75Zm0,2.76h1.75v-1.75h-1.75Z" transform="translate(-185.46 -225.16)" style="fill:#e4e9ee"/><path d="M194.79,250v-2.34h.35V250Zm.32-.89v-.31h.49a.41.41,0,0,0,.3-.11.38.38,0,0,0,.11-.29.46.46,0,0,0-.11-.32.41.41,0,0,0-.3-.11h-.48l0-.31h.52a.82.82,0,0,1,.56.18.7.7,0,0,1,.19.53.73.73,0,0,1-.19.54.78.78,0,0,1-.56.2Zm.94.89-.53-1.1h.36l.56,1.1Z" transform="translate(-185.46 -225.16)" style="fill:#e4e9ee"/><path d="M197.67,250a.92.92,0,0,1-.68-.24.85.85,0,0,1-.25-.67,1,1,0,0,1,.21-.66.73.73,0,0,1,.58-.24.71.71,0,0,1,.55.21,1,1,0,0,1,.19.63,1.55,1.55,0,0,1,0,.22H197V249H198a.52.52,0,0,0-.11-.36.4.4,0,0,0-.31-.12.41.41,0,0,0-.34.15.66.66,0,0,0-.12.42.62.62,0,0,0,.16.47.73.73,0,0,0,.48.15h.22l.21,0,0,.3-.28,0Z" transform="translate(-185.46 -225.16)" style="fill:#e4e9ee"/><path d="M198.78,248.51v-.31h1.4v.31Zm.24,1.33-.24-.2,1.16-1.32.24.19Zm-.24.11v-.31h1.43V250Z" transform="translate(-185.46 -225.16)" style="fill:#e4e9ee"/><path d="M201.21,250a.6.6,0,0,1-.42-.13.47.47,0,0,1-.15-.37.49.49,0,0,1,.21-.43,1,1,0,0,1,.58-.15l.28,0a1.41,1.41,0,0,1,.22.06l-.08.24a.76.76,0,0,0-.21,0h-.22c-.3,0-.45.09-.45.28a.22.22,0,0,0,.08.18.34.34,0,0,0,.22.06.54.54,0,0,0,.27-.06.32.32,0,0,0,.16-.14.32.32,0,0,0,.06-.18v-.19l.1.45h-.14l.06-.06a.5.5,0,0,1-.07.26.44.44,0,0,1-.2.15A.85.85,0,0,1,201.21,250Zm.62,0,0-.51,0-.15v-.45a.27.27,0,0,0-.12-.25.65.65,0,0,0-.37-.09h-.42l0-.31h.35a1,1,0,0,1,.64.19.64.64,0,0,1,.21.52v.73l.3,0V250Z" transform="translate(-185.46 -225.16)" style="fill:#e4e9ee"/><path d="M204.69,250v-2.34H205V250Zm0-2v-.31h1.55v.31Zm0,1v-.31h1.25v.31Zm0,1v-.32h1.55V250Z" transform="translate(-185.46 -225.16)" style="fill:#e4e9ee"/><path d="M207.25,250h-.33l-.26,0,0-.32.3,0,.25,0a.93.93,0,0,0,.39-.06.17.17,0,0,0,.12-.16.17.17,0,0,0,0-.12l-.12-.06-.41-.1a1,1,0,0,1-.37-.16.38.38,0,0,1-.13-.3.44.44,0,0,1,.22-.41,1.45,1.45,0,0,1,.71-.13h.24l.22,0,0,.31-.24,0h-.2a1.4,1.4,0,0,0-.42.05c-.09,0-.13.09-.13.17a.12.12,0,0,0,0,.11l.17.06.32.08a.94.94,0,0,1,.4.17.39.39,0,0,1,.13.32.44.44,0,0,1-.21.41A1.21,1.21,0,0,1,207.25,250Z" transform="translate(-185.46 -225.16)" style="fill:#e4e9ee"/><path d="M208.49,248.51v-.31h1.58v.31Zm.44.61v-1.44h.35v1.44Zm.75.86a.84.84,0,0,1-.58-.17.71.71,0,0,1-.17-.52V249h.35v.28a.38.38,0,0,0,.1.3.44.44,0,0,0,.33.1h.17l.21,0,0,.31-.22,0Z" transform="translate(-185.46 -225.16)" style="fill:#e4e9ee"/><path d="M211.08,250a.6.6,0,0,1-.42-.13.47.47,0,0,1-.15-.37.49.49,0,0,1,.2-.43,1,1,0,0,1,.59-.15l.27,0a1,1,0,0,1,.22.06l-.07.24a.83.83,0,0,0-.22,0h-.21c-.3,0-.46.09-.46.28a.22.22,0,0,0,.08.18.36.36,0,0,0,.22.06.61.61,0,0,0,.28-.06.36.36,0,0,0,.16-.14.31.31,0,0,0,.05-.18v-.19l.11.45h-.14l0-.06a.42.42,0,0,1-.07.26.41.41,0,0,1-.19.15A.94.94,0,0,1,211.08,250Zm.61,0,0-.51,0-.15v-.45a.27.27,0,0,0-.12-.25.6.6,0,0,0-.36-.09h-.42l0-.31h.35a1,1,0,0,1,.65.19.64.64,0,0,1,.21.52v.73l.29,0V250Z" transform="translate(-185.46 -225.16)" style="fill:#e4e9ee"/><path d="M212.44,248.51v-.31H214v.31Zm.43.61v-1.44h.35v1.44Zm.75.86a.83.83,0,0,1-.57-.17.67.67,0,0,1-.18-.52V249h.35v.28a.41.41,0,0,0,.1.3.46.46,0,0,0,.34.1h.17l.21,0,0,.31-.22,0Z" transform="translate(-185.46 -225.16)" style="fill:#e4e9ee"/><path d="M215.43,250a1,1,0,0,1-.69-.24.89.89,0,0,1-.24-.67,1,1,0,0,1,.21-.66.71.71,0,0,1,.58-.24.69.69,0,0,1,.54.21.92.92,0,0,1,.2.63c0,.08,0,.15,0,.22h-1.23V249h.92a.57.57,0,0,0-.11-.36.4.4,0,0,0-.31-.12.41.41,0,0,0-.34.15.6.6,0,0,0-.13.42.63.63,0,0,0,.17.47.69.69,0,0,0,.48.15h.22l.21,0,0,.3-.28,0Z" transform="translate(-185.46 -225.16)" style="fill:#e4e9ee"/><path d="M198.2,252.7c-.55,0-.82-.3-.82-.9a.93.93,0,0,1,.21-.66.73.73,0,0,1,.58-.24.75.75,0,0,1,.31.06.41.41,0,0,1,.2.16l-.18.18a.57.57,0,0,0-.14-.13.41.41,0,0,0-.19,0,.46.46,0,0,0-.38.17.72.72,0,0,0-.14.49c0,.45.19.68.59.68a.84.84,0,0,0,.35-.07l.06.22A1.33,1.33,0,0,1,198.2,252.7Z" transform="translate(-185.46 -225.16)" style="fill:#e4e9ee"/><path d="M199.5,252.7a.52.52,0,0,1-.43-.18.75.75,0,0,1-.15-.5.76.76,0,0,1,.15-.5.52.52,0,0,1,.43-.18.52.52,0,0,1,.42.18.76.76,0,0,1,.15.5.75.75,0,0,1-.15.5A.52.52,0,0,1,199.5,252.7Zm0-.23a.25.25,0,0,0,.22-.12.72.72,0,0,0,0-.66.27.27,0,0,0-.22-.11.28.28,0,0,0-.23.11.72.72,0,0,0,0,.66A.27.27,0,0,0,199.5,252.47Z" transform="translate(-185.46 -225.16)" style="fill:#e4e9ee"/><path d="M200.33,252.68v-.23h.88v.23Zm0-1.08v-.23h.44l0,.23Zm.25,1.08v-1.31h.21l0,.37v.94Zm.26-.57-.08-.41h.1q0-.36.36-.36a.36.36,0,0,1,.3.12.62.62,0,0,1,.09.38h-.26a.36.36,0,0,0-.05-.21.14.14,0,0,0-.13-.06.26.26,0,0,0-.25.14A.75.75,0,0,0,200.89,252.11Z" transform="translate(-185.46 -225.16)" style="fill:#e4e9ee"/><path d="M201.92,253.24v-1.87h.24l0,.28v1.59Zm.64-.54a.39.39,0,0,1-.25-.07.26.26,0,0,1-.1-.19h-.11l.08-.37a.51.51,0,0,0,.08.3.32.32,0,0,0,.48,0,.62.62,0,0,0,.08-.33.69.69,0,0,0-.08-.36.3.3,0,0,0-.24-.11.3.3,0,0,0-.24.1.52.52,0,0,0-.08.31l-.08-.37h.1a.29.29,0,0,1,.11-.2.44.44,0,0,1,.25-.07.46.46,0,0,1,.39.18.92.92,0,0,1,.13.52.84.84,0,0,1-.13.49A.48.48,0,0,1,202.56,252.7Z" transform="translate(-185.46 -225.16)" style="fill:#e4e9ee"/><path d="M203.94,252.7a.52.52,0,0,1-.43-.18.75.75,0,0,1-.15-.5.76.76,0,0,1,.15-.5.52.52,0,0,1,.43-.18.52.52,0,0,1,.42.18.76.76,0,0,1,.15.5.75.75,0,0,1-.15.5A.52.52,0,0,1,203.94,252.7Zm0-.23a.25.25,0,0,0,.22-.12.72.72,0,0,0,0-.66.27.27,0,0,0-.22-.11.28.28,0,0,0-.23.11.72.72,0,0,0,0,.66A.27.27,0,0,0,203.94,252.47Z" transform="translate(-185.46 -225.16)" style="fill:#e4e9ee"/><path d="M204.77,252.68v-.23h.88v.23Zm0-1.08v-.23h.44l0,.23Zm.25,1.08v-1.31h.21l.05.37v.94Zm.26-.57-.08-.41h.1q0-.36.36-.36a.36.36,0,0,1,.3.12.62.62,0,0,1,.09.38h-.26a.36.36,0,0,0-.05-.21.14.14,0,0,0-.13-.06.26.26,0,0,0-.25.14A.75.75,0,0,0,205.33,252.11Z" transform="translate(-185.46 -225.16)" style="fill:#e4e9ee"/><path d="M206.7,252.7a.43.43,0,0,1-.31-.1.34.34,0,0,1-.12-.28.37.37,0,0,1,.16-.31.7.7,0,0,1,.44-.12l.21,0,.16,0-.06.18-.16,0h-.16c-.23,0-.34.07-.34.21a.15.15,0,0,0,.06.13.22.22,0,0,0,.17.05.42.42,0,0,0,.2,0,.32.32,0,0,0,.12-.11.22.22,0,0,0,0-.13v-.15l.08.34h-.1l0,0a.36.36,0,0,1,0,.19.33.33,0,0,1-.15.11A.56.56,0,0,1,206.7,252.7Zm.46,0v-.39l0-.11v-.34a.22.22,0,0,0-.09-.19.49.49,0,0,0-.27-.06h-.32l0-.23h.26a.71.71,0,0,1,.48.14.47.47,0,0,1,.16.39v.55l.22,0v.21Z" transform="translate(-185.46 -225.16)" style="fill:#e4e9ee"/><path d="M207.72,251.6v-.23h1.19v.23Zm.33.46V251h.26v1.09Zm.56.64a.63.63,0,0,1-.43-.12.52.52,0,0,1-.13-.4V252h.26v.21a.32.32,0,0,0,.08.23.39.39,0,0,0,.25.07h.13l.16,0,0,.23-.17,0Z" transform="translate(-185.46 -225.16)" style="fill:#e4e9ee"/><path d="M209.31,252.68v-.23h.53v.23Zm.08-1.08v-.23h.68v.23Zm.54-.44a.18.18,0,0,1-.13-.31.17.17,0,0,1,.13,0,.15.15,0,0,1,.13,0,.17.17,0,0,1,0,.26A.19.19,0,0,1,209.93,251.16Zm-.12,1.52v-1.24h.26v1.24Zm.24,0v-.23h.42v.23Z" transform="translate(-185.46 -225.16)" style="fill:#e4e9ee"/><path d="M211.34,252.7a.52.52,0,0,1-.43-.18.75.75,0,0,1-.15-.5.76.76,0,0,1,.15-.5.52.52,0,0,1,.43-.18.52.52,0,0,1,.42.18.76.76,0,0,1,.15.5.75.75,0,0,1-.15.5A.52.52,0,0,1,211.34,252.7Zm0-.23a.25.25,0,0,0,.22-.12.72.72,0,0,0,0-.66.27.27,0,0,0-.22-.11.28.28,0,0,0-.23.11.72.72,0,0,0,0,.66A.27.27,0,0,0,211.34,252.47Z" transform="translate(-185.46 -225.16)" style="fill:#e4e9ee"/><path d="M212.28,252.68v-1.31h.24l0,.28v1Zm.81,0v-.85a.29.29,0,0,0-.06-.19.26.26,0,0,0-.18-.06c-.2,0-.31.12-.31.36l-.07-.33h.1a.26.26,0,0,1,.1-.2.38.38,0,0,1,.24-.07.41.41,0,0,1,.32.13.49.49,0,0,1,.12.36v.85Z" transform="translate(-185.46 -225.16)" style="fill:#e4e9ee"/></svg>